<svg width="245" height="65" viewBox="0 0 245 65" fill="none" xmlns="http://www.w3.org/2000/svg">
<rect x="0.264648" y="5.42322" width="4.44778" height="59.5767" rx="2.22389" fill="#7B27E7"/>
<path d="M18.0558 7.64711C18.0558 6.41889 19.0515 5.42322 20.2797 5.42322V5.42322C21.5079 5.42322 22.5036 6.41889 22.5036 7.64711L22.5036 62.7761C22.5036 64.0043 21.5079 65 20.2797 65V65C19.0515 65 18.0558 64.0043 18.0558 62.7761L18.0558 7.64711Z" fill="#7B27E7"/>
<rect x="35.8467" y="5.42322" width="4.44778" height="59.5767" rx="2.22389" fill="#7B27E7"/>
<rect x="9.15997" y="0.954956" width="4.44778" height="59.5767" rx="2.22389" fill="#1E2772"/>
<rect x="26.9512" y="0.954956" width="4.44778" height="59.5767" rx="2.22389" fill="#1E2772"/>
<path d="M52.8 21.52H75.64V24.56H65.96V50H62.48V24.56H52.8V21.52ZM90.9284 47.4H92.0884V50C91.5551 50.08 90.9684 50.12 90.3284 50.12C88.1684 50.12 87.0084 49.1333 86.8484 47.16C85.4084 49.3733 83.1684 50.48 80.1284 50.48C77.8618 50.48 76.0751 49.96 74.7684 48.92C73.4884 47.8533 72.8484 46.36 72.8484 44.44C72.8484 40.7067 75.3951 38.5733 80.4884 38.04L83.4484 37.72C85.6084 37.48 86.6884 36.5333 86.6884 34.88C86.6884 33.7333 86.3284 32.9067 85.6084 32.4C84.9151 31.8933 83.7284 31.64 82.0484 31.64C80.2618 31.64 78.9684 31.9467 78.1684 32.56C77.3951 33.1467 76.9551 34.2 76.8484 35.72H73.6484C73.9151 31.16 76.7151 28.88 82.0484 28.88C87.2218 28.88 89.8084 30.88 89.8084 34.88V46.4C89.8084 47.0667 90.1818 47.4 90.9284 47.4ZM80.2884 47.76C81.9951 47.76 83.4884 47.24 84.7684 46.2C86.0484 45.1867 86.6884 43.7333 86.6884 41.84V39.4C86.1018 39.8533 85.1951 40.1467 83.9684 40.28L80.9684 40.64C79.2351 40.8533 77.9951 41.2533 77.2484 41.84C76.5284 42.4267 76.1684 43.2667 76.1684 44.36C76.1684 45.4267 76.5151 46.2667 77.2084 46.88C77.9018 47.4667 78.9284 47.76 80.2884 47.76ZM102.188 50.48C96.6678 50.48 93.7478 48.1333 93.4278 43.44H96.6678C96.8545 44.9867 97.3611 46.0933 98.1878 46.76C99.0411 47.4 100.374 47.72 102.188 47.72C105.494 47.72 107.148 46.6533 107.148 44.52C107.148 43.5867 106.801 42.88 106.108 42.4C105.441 41.92 104.214 41.5067 102.428 41.16L100.508 40.8C96.2145 40 94.0678 37.9733 94.0678 34.72C94.0678 32.9333 94.7345 31.52 96.0678 30.48C97.4278 29.4133 99.2678 28.88 101.588 28.88C107.054 28.88 109.854 31.16 109.988 35.72H106.788C106.708 34.2267 106.254 33.1733 105.428 32.56C104.601 31.9467 103.321 31.64 101.588 31.64C100.201 31.64 99.1345 31.9067 98.3878 32.44C97.6411 32.9733 97.2678 33.72 97.2678 34.68C97.2678 35.5867 97.5878 36.2667 98.2278 36.72C98.8678 37.1733 99.9345 37.56 101.428 37.88L103.268 38.24C105.801 38.7467 107.614 39.4667 108.708 40.4C109.828 41.3333 110.388 42.64 110.388 44.32C110.388 46.2667 109.654 47.7867 108.188 48.88C106.748 49.9467 104.748 50.48 102.188 50.48ZM131.14 50H127.42L120.46 38.92L116.78 42.36V50H113.58V21.52H116.78V38.6L126.34 29.36H130.58L122.74 36.8L131.14 50ZM130.534 21.52H153.374V24.56H143.694V50H140.214V24.56H130.534V21.52ZM162.674 29.04C163.207 29.04 163.567 29.0533 163.754 29.08V32.16H162.954C160.82 32.16 159.154 32.6933 157.954 33.76C156.78 34.8 156.194 36.2933 156.194 38.24V50H152.994V29.36H156.034V33C157.42 30.36 159.634 29.04 162.674 29.04ZM182.218 47.4H183.378V50C182.844 50.08 182.258 50.12 181.618 50.12C179.458 50.12 178.298 49.1333 178.138 47.16C176.698 49.3733 174.458 50.48 171.418 50.48C169.151 50.48 167.364 49.96 166.058 48.92C164.778 47.8533 164.138 46.36 164.138 44.44C164.138 40.7067 166.684 38.5733 171.778 38.04L174.738 37.72C176.898 37.48 177.978 36.5333 177.978 34.88C177.978 33.7333 177.618 32.9067 176.898 32.4C176.204 31.8933 175.018 31.64 173.338 31.64C171.551 31.64 170.258 31.9467 169.458 32.56C168.684 33.1467 168.244 34.2 168.138 35.72H164.938C165.204 31.16 168.004 28.88 173.338 28.88C178.511 28.88 181.098 30.88 181.098 34.88V46.4C181.098 47.0667 181.471 47.4 182.218 47.4ZM171.578 47.76C173.284 47.76 174.778 47.24 176.058 46.2C177.338 45.1867 177.978 43.7333 177.978 41.84V39.4C177.391 39.8533 176.484 40.1467 175.258 40.28L172.258 40.64C170.524 40.8533 169.284 41.2533 168.538 41.84C167.818 42.4267 167.458 43.2667 167.458 44.36C167.458 45.4267 167.804 46.2667 168.498 46.88C169.191 47.4667 170.218 47.76 171.578 47.76ZM194.562 50.48C191.708 50.48 189.402 49.4933 187.642 47.52C185.882 45.5467 185.002 42.9333 185.002 39.68C185.002 36.3733 185.882 33.7467 187.642 31.8C189.348 29.8533 191.655 28.88 194.562 28.88C197.015 28.88 199.028 29.5467 200.602 30.88C202.175 32.2133 203.122 34.04 203.442 36.36H200.122C199.882 34.8933 199.242 33.76 198.202 32.96C197.188 32.16 195.975 31.76 194.562 31.76C192.668 31.76 191.162 32.4533 190.042 33.84C188.922 35.2 188.362 37.1467 188.362 39.68C188.362 42.1867 188.922 44.1333 190.042 45.52C191.188 46.9067 192.695 47.6 194.562 47.6C195.975 47.6 197.202 47.1867 198.242 46.36C199.282 45.5333 199.922 44.3867 200.162 42.92H203.442C203.095 45.24 202.108 47.08 200.482 48.44C198.882 49.8 196.908 50.48 194.562 50.48ZM224.421 50H220.701L213.741 38.92L210.061 42.36V50H206.861V21.52H210.061V38.6L219.621 29.36H223.861L216.021 36.8L224.421 50Z" fill="#1E2772"/>
</svg>
